<svg xmlns="http://www.w3.org/2000/svg" xmlns:xlink="http://www.w3.org/1999/xlink" width="500" zoomAndPan="magnify" viewBox="0 0 375 374.999991" height="500" preserveAspectRatio="xMidYMid meet" version="1.0"><defs><g/><clipPath id="id1"><path d="M 56.113281 170.535156 L 318.613281 170.535156 L 318.613281 204.285156 L 56.113281 204.285156 Z M 56.113281 170.535156 " clip-rule="nonzero"/></clipPath></defs><rect x="-37.5" width="450" fill="#ffffff" y="-37.499999" height="449.999989" fill-opacity="1"/><rect x="-37.5" width="450" fill="#ffffff" y="-37.499999" height="449.999989" fill-opacity="1"/><rect x="-37.5" width="450" fill="#ffffff" y="-37.499999" height="449.999989" fill-opacity="1"/><rect x="-37.5" width="450" fill="#ffffff" y="-37.499999" height="449.999989" fill-opacity="1"/><g fill="#1f2122" fill-opacity="1"><g transform="translate(110.821265, 296.917025)"><g><path d="M 72.703125 -204.1875 C 81.035156 -204.1875 87.613281 -203.285156 92.4375 -201.484375 C 97.257812 -199.691406 102.226562 -197.085938 107.34375 -193.671875 C 111.507812 -191.023438 114.726562 -189.703125 117 -189.703125 C 118.707031 -189.703125 120.03125 -190.695312 120.96875 -192.6875 C 121.914062 -194.675781 122.675781 -197.847656 123.25 -202.203125 L 129.78125 -202.203125 C 128.832031 -191.210938 128.359375 -171.898438 128.359375 -144.265625 L 121.828125 -144.265625 C 120.691406 -159.597656 116.289062 -172.519531 108.625 -183.03125 C 100.957031 -193.539062 89.832031 -198.796875 75.25 -198.796875 C 65.03125 -198.796875 56.703125 -195.71875 50.265625 -189.5625 C 43.828125 -183.40625 40.609375 -175.5 40.609375 -165.84375 C 40.609375 -158.65625 42.265625 -152.410156 45.578125 -147.109375 C 48.890625 -141.804688 53.101562 -137.257812 58.21875 -133.46875 C 63.332031 -129.6875 70.617188 -124.859375 80.078125 -118.984375 L 88.3125 -113.875 C 100.238281 -106.488281 109.65625 -100.003906 116.5625 -94.421875 C 123.476562 -88.835938 129.019531 -82.445312 133.1875 -75.25 C 137.351562 -68.0625 139.4375 -59.640625 139.4375 -49.984375 C 139.4375 -32.753906 133.753906 -19.453125 122.390625 -10.078125 C 111.035156 -0.710938 96.648438 3.96875 79.234375 3.96875 C 70.140625 3.96875 62.707031 3.019531 56.9375 1.125 C 51.164062 -0.757812 45.628906 -3.3125 40.328125 -6.53125 C 36.160156 -9.175781 32.941406 -10.5 30.671875 -10.5 C 28.960938 -10.5 27.632812 -9.503906 26.6875 -7.515625 C 25.75 -5.535156 24.992188 -2.367188 24.421875 1.984375 L 17.890625 1.984375 C 18.648438 -8.421875 19.03125 -31.140625 19.03125 -66.171875 L 25.5625 -66.171875 C 26.882812 -47.046875 31.613281 -31.519531 39.75 -19.59375 C 47.894531 -7.664062 60.394531 -1.703125 77.25 -1.703125 C 87.46875 -1.703125 96.171875 -4.875 103.359375 -11.21875 C 110.554688 -17.5625 114.15625 -26.976562 114.15625 -39.46875 C 114.15625 -50.070312 110.601562 -59.066406 103.5 -66.453125 C 96.40625 -73.835938 85.191406 -82.164062 69.859375 -91.4375 C 58.691406 -98.257812 49.648438 -104.316406 42.734375 -109.609375 C 35.828125 -114.910156 30.195312 -121.300781 25.84375 -128.78125 C 21.488281 -136.257812 19.3125 -145.019531 19.3125 -155.0625 C 19.3125 -170.957031 24.421875 -183.117188 34.640625 -191.546875 C 44.867188 -199.972656 57.554688 -204.1875 72.703125 -204.1875 Z M 72.703125 -204.1875 "/></g></g></g><g clip-path="url(#id1)"><path fill="#ffffff" d="M 56.140625 170.535156 L 318.589844 170.535156 L 318.589844 204.285156 L 56.140625 204.285156 L 56.140625 170.535156 " fill-opacity="1" fill-rule="nonzero"/></g></svg>