<svg xmlns="http://www.w3.org/2000/svg" xmlns:xlink="http://www.w3.org/1999/xlink" width="1920" zoomAndPan="magnify" viewBox="0 0 1440 809.999993" height="1080" preserveAspectRatio="xMidYMid meet" version="1.0"><defs><g/><clipPath id="id1"><path d="M 436.207031 368.351562 L 1003.957031 368.351562 L 1003.957031 441.851562 L 436.207031 441.851562 Z M 436.207031 368.351562 " clip-rule="nonzero"/></clipPath></defs><rect x="-144" width="1728" fill="#ffffff" y="-80.999999" height="971.999992" fill-opacity="1"/><rect x="-144" width="1728" fill="#1f2122" y="-80.999999" height="971.999992" fill-opacity="1"/><rect x="-144" width="1728" fill="#ffffff" y="-80.999999" height="971.999992" fill-opacity="1"/><rect x="-144" width="1728" fill="#1f2122" y="-80.999999" height="971.999992" fill-opacity="1"/><g fill="#ffffff" fill-opacity="1"><g transform="translate(554.373877, 641.340852)"><g><path d="M 157.03125 -441.03125 C 175.019531 -441.03125 189.226562 -439.085938 199.65625 -435.203125 C 210.09375 -431.328125 220.832031 -425.707031 231.875 -418.34375 C 240.863281 -412.613281 247.8125 -409.75 252.71875 -409.75 C 256.40625 -409.75 259.269531 -411.894531 261.3125 -416.1875 C 263.351562 -420.488281 264.988281 -427.34375 266.21875 -436.75 L 280.328125 -436.75 C 278.285156 -413.03125 277.265625 -371.316406 277.265625 -311.609375 L 263.15625 -311.609375 C 260.695312 -344.734375 251.1875 -372.644531 234.625 -395.34375 C 218.0625 -418.039062 194.035156 -429.390625 162.546875 -429.390625 C 140.460938 -429.390625 122.46875 -422.742188 108.5625 -409.453125 C 94.664062 -396.160156 87.71875 -379.085938 87.71875 -358.234375 C 87.71875 -342.691406 91.296875 -329.191406 98.453125 -317.734375 C 105.609375 -306.285156 114.707031 -296.472656 125.75 -288.296875 C 136.789062 -280.117188 152.535156 -269.691406 172.984375 -257.015625 L 190.765625 -245.96875 C 216.523438 -230.019531 236.867188 -216.015625 251.796875 -203.953125 C 266.722656 -191.890625 278.6875 -178.085938 287.6875 -162.546875 C 296.6875 -147.015625 301.1875 -128.816406 301.1875 -107.953125 C 301.1875 -70.742188 288.914062 -42.015625 264.375 -21.765625 C 239.84375 -1.523438 208.765625 8.59375 171.140625 8.59375 C 151.515625 8.59375 135.460938 6.546875 122.984375 2.453125 C 110.515625 -1.640625 98.554688 -7.160156 87.109375 -14.109375 C 78.109375 -19.835938 71.15625 -22.703125 66.25 -22.703125 C 62.570312 -22.703125 59.707031 -20.550781 57.65625 -16.25 C 55.613281 -11.957031 53.976562 -5.109375 52.75 4.296875 L 38.640625 4.296875 C 40.273438 -18.191406 41.09375 -67.265625 41.09375 -142.921875 L 55.203125 -142.921875 C 58.066406 -101.617188 68.289062 -68.085938 85.875 -42.328125 C 103.457031 -16.566406 130.445312 -3.6875 166.84375 -3.6875 C 188.925781 -3.6875 207.738281 -10.535156 223.28125 -24.234375 C 238.820312 -37.929688 246.59375 -58.273438 246.59375 -85.265625 C 246.59375 -108.160156 238.921875 -127.582031 223.578125 -143.53125 C 208.242188 -159.476562 184.015625 -177.472656 150.890625 -197.515625 C 126.765625 -212.234375 107.238281 -225.316406 92.3125 -236.765625 C 77.382812 -248.222656 65.21875 -262.023438 55.8125 -278.171875 C 46.414062 -294.328125 41.71875 -313.242188 41.71875 -334.921875 C 41.71875 -369.273438 52.753906 -395.546875 74.828125 -413.734375 C 96.910156 -431.929688 124.3125 -441.03125 157.03125 -441.03125 Z M 157.03125 -441.03125 "/></g></g></g><g clip-path="url(#id1)"><path fill="#1f2122" d="M 436.222656 368.351562 L 1003.941406 368.351562 L 1003.941406 441.851562 L 436.222656 441.851562 L 436.222656 368.351562 " fill-opacity="1" fill-rule="nonzero"/></g></svg>